# xmcd CD database file
#
# Track frame offsets:
#	150
#	7293
#	23074
#	41543
#	65119
#	77389
#	102031
#	118968
#	135848
#	160153
#	181002
#	197224
#
# Disc length: 2835 seconds
#
# Revision: 1
# Processed by: cddbd v1.5PL3 Copyright (c) Steve Scherf et al.
# Submitted via: CDex 1.40Beta9
#
DISCID=950b110c
DTITLE=SPITZ - フェイクファー
DYEAR=1900
DGENRE=Jazz
TTITLE0=エトランゼ
TTITLE1=センチメンタル
TTITLE2=冷たい頬
TTITLE3=運命の人 (Album Version)
TTITLE4=仲良し
TTITLE5=楓
TTITLE6=スーパーノヴァ
TTITLE7=ただ春を待つ
TTITLE8=謝々!
TTITLE9=ウイリー
TTITLE10=スカーレット (Album Mix)
TTITLE11=フェイクファー
EXTD=ID3G: 8
EXTT0=
EXTT1=
EXTT2=
EXTT3=
EXTT4=
EXTT5=
EXTT6=
EXTT7=
EXTT8=
EXTT9=
EXTT10=
EXTT11=
PLAYORDER=
